<svg xmlns="http://www.w3.org/2000/svg" width="520" height="160" viewBox="0 0 520 160">
  <rect width="520" height="160" fill="none"/>
  <path d="M34 101c31-35 60-60 88-76 12-7 23-9 31-5 9 5 7 17-7 36-12 17-29 34-51 51 35-24 63-38 85-42 13-2 21 1 24 8 4 9-4 20-22 35 31-20 58-30 82-31 18-1 29 5 32 18 17-11 33-16 50-16 19 0 33 8 42 24 23-18 45-25 67-22" fill="none" stroke="#1b1b1b" stroke-width="7" stroke-linecap="round" stroke-linejoin="round"/>
  <path d="M293 103c11 14 28 22 50 23 23 1 45-6 66-20" fill="none" stroke="#c9a24d" stroke-width="5" stroke-linecap="round"/>
  <text x="80" y="142" font-family="Arial, Helvetica, sans-serif" font-size="22" font-weight="700" fill="#1b1b1b" letter-spacing="1">ASKAR STONE</text>
  <text x="265" y="142" font-family="Arial, Helvetica, sans-serif" font-size="14" fill="#666" letter-spacing="1.5">AUTHORIZED SIGNATURE</text>
</svg>
